
<svg version="1.0" xmlns="http://www.w3.org/2000/svg"
 width="500.000000pt" height="500.000000pt" viewBox="0 0 500.000000 500.000000"
 preserveAspectRatio="xMidYMid meet">

<g transform="translate(0.000000,500.000000) scale(0.100000,-0.100000)"
fill="#000000" stroke="none">
<path d="M2256 4304 c-442 -69 -844 -324 -1091 -694 -120 -181 -199 -369 -246
-590 -31 -143 -33 -445 -5 -595 107 -574 525 -1058 1070 -1240 192 -64 287
-79 516 -79 176 0 220 3 310 23 312 67 576 204 795 412 245 235 404 521 476
859 20 90 23 135 23 310 0 175 -3 220 -23 310 -103 482 -387 870 -805 1102
-158 88 -390 165 -566 188 -107 13 -349 11 -454 -6z m-14 -363 c162 -34 367
-118 434 -178 48 -43 214 -276 214 -300 0 -3 6 -14 13 -22 14 -17 144 -308
241 -540 31 -73 64 -163 72 -200 13 -50 24 -72 47 -92 30 -26 30 -28 19 -67
-9 -31 -10 -52 0 -94 12 -59 16 -211 7 -331 -5 -68 -9 -81 -35 -108 l-29 -31
24 4 c20 2 34 21 71 96 54 106 80 138 122 147 39 9 87 -12 99 -43 8 -20 6 -32
-10 -53 -20 -27 -20 -29 -3 -58 19 -34 30 -39 38 -16 7 18 55 20 72 3 18 -18
15 -38 -22 -114 -62 -130 -183 -190 -272 -135 l-32 19 -26 -27 c-32 -33 -94
-56 -125 -46 -12 3 -32 23 -46 43 l-25 37 0 -30 c0 -42 -35 -75 -81 -75 -21 0
-42 7 -49 15 -12 14 -15 14 -34 -3 -72 -66 -159 -53 -188 29 -12 35 -30 29
-51 -20 -36 -81 -112 -113 -168 -72 -26 19 -30 20 -35 6 -4 -9 -24 -25 -46
-36 -44 -22 -80 -19 -110 8 -16 15 -20 14 -43 -11 -50 -54 -128 -58 -161 -8
-19 29 -25 107 -11 155 11 40 -9 34 -23 -7 -7 -21 -8 -58 -4 -95 6 -58 5 -61
-25 -92 -27 -26 -37 -30 -64 -25 -18 3 -40 16 -50 27 -10 12 -19 20 -20 18 -2
-2 -11 -16 -20 -31 -9 -15 -38 -40 -64 -55 -39 -23 -59 -28 -110 -27 -65 0
-93 13 -137 60 -50 54 -60 186 -19 242 29 41 89 67 119 53 22 -10 24 -16 22
-63 -3 -51 -2 -53 22 -53 38 0 38 37 1 84 -98 123 -90 233 19 289 53 26 85 28
141 5 32 -12 46 -26 60 -57 14 -31 19 -36 19 -18 0 50 78 127 108 108 20 -12
42 6 42 35 0 16 -2 29 -5 29 -3 0 -24 -12 -46 -27 -43 -29 -120 -41 -183 -29
-135 26 -195 251 -112 420 22 45 23 51 9 72 -8 13 -13 29 -10 36 4 9 6 8 6 -3
1 -9 8 -22 16 -29 12 -10 22 -6 56 25 23 20 56 43 74 51 l33 13 3 85 c2 47 9
89 14 94 6 6 34 6 71 -1 127 -22 399 46 533 133 117 76 181 148 181 205 0 54
-146 209 -252 268 -134 75 -320 104 -463 72 -91 -20 -85 -25 -116 90 -25 92
-21 210 7 253 16 24 19 25 108 19 50 -3 135 -15 188 -26z m-52 -348 c-1 -11
-70 -44 -70 -34 0 27 15 41 41 41 16 0 29 -3 29 -7z m120 -13 c0 -7 -45 -30
-60 -30 -10 0 -14 33 -5 42 7 7 65 -3 65 -12z m702 -11 c69 -20 177 -85 203
-122 8 -11 14 -22 12 -23 -1 -1 -20 1 -43 5 -56 10 -126 -9 -174 -48 l-39 -32
-35 68 c-18 38 -50 92 -70 122 -20 29 -36 55 -36 58 0 10 114 -7 182 -28z
m-905 -9 c-6 -16 -8 -32 -5 -35 3 -3 28 8 56 24 27 17 52 31 56 31 3 0 6 -13
6 -30 0 -33 9 -36 48 -16 39 20 73 29 71 19 -9 -52 11 -64 61 -38 28 15 30 14
30 -4 0 -11 -6 -23 -12 -28 -8 -4 0 -10 22 -14 19 -4 37 -4 40 0 14 22 46 29
76 16 29 -12 51 -32 43 -39 -2 -2 -14 -7 -27 -10 -17 -6 -24 -2 -31 16 -9 21
-10 21 -10 -9 -1 -36 9 -40 54 -23 38 14 47 4 27 -30 -22 -38 -11 -47 41 -33
48 13 56 10 39 -17 -18 -29 -15 -40 12 -40 53 0 58 -52 10 -109 -32 -38 -130
-113 -181 -139 -21 -11 -81 -34 -133 -52 -148 -52 -310 -53 -483 -4 -9 3 -31
17 -47 31 l-30 25 24 19 c31 25 70 24 112 -1 18 -12 35 -17 38 -12 7 12 -32
48 -65 61 -19 7 -30 21 -38 48 l-10 38 2 -38 c3 -30 -1 -41 -17 -49 -12 -6
-31 -19 -42 -30 -26 -23 -31 -18 -50 55 -15 55 -18 144 -8 195 6 27 8 29 21
17 11 -11 19 -12 33 -5 11 6 23 9 29 8 21 -6 12 18 -12 32 -22 12 -30 13 -47
2 -17 -11 -20 -10 -20 6 0 38 144 157 160 132 5 -8 26 -2 76 24 87 44 96 45
81 6z m-78 16 c-2 -2 -14 -9 -26 -15 -19 -10 -22 -9 -17 4 4 8 15 15 27 15 11
0 18 -2 16 -4z m380 -15 c11 -7 7 -13 -17 -25 -40 -21 -42 -20 -42 9 0 19 5
25 23 25 12 0 28 -4 36 -9z m85 -36 c18 -14 18 -15 -8 -25 -36 -13 -36 -14
-36 15 0 28 16 31 44 10z m170 -146 c-7 -11 -44 -12 -44 -1 0 4 5 13 12 20 13
13 42 -4 32 -19z m56 -54 c0 -8 -4 -15 -10 -15 -5 0 -10 7 -10 15 0 8 5 15 10
15 6 0 10 -7 10 -15z m-1011 -409 c10 -11 7 -14 -13 -12 -18 1 -22 4 -14 14
13 15 13 15 27 -2z m-202 -58 c-3 -8 -6 -5 -6 6 -1 11 2 17 5 13 3 -3 4 -12 1
-19z m-7 -29 c0 -20 -58 -69 -82 -69 -20 1 -19 2 9 15 17 7 39 25 48 39 19 28
25 32 25 15z m100 -58 c22 -9 23 -10 4 -10 -11 -1 -33 14 -50 31 -22 25 -23
27 -4 11 14 -12 36 -26 50 -32z m1450 -1166 c10 -12 10 -19 2 -27 -16 -16 -15
-29 3 -52 15 -20 15 -20 29 0 14 18 15 18 21 1 10 -25 -12 -73 -47 -102 -34
-29 -89 -33 -108 -10 -19 23 -65 14 -90 -18 -24 -30 -61 -35 -80 -12 -12 14
-16 13 -39 -9 -56 -54 -118 -40 -142 31 l-12 38 -14 -47 c-7 -27 -24 -55 -39
-67 -29 -23 -74 -27 -92 -9 -9 9 -17 5 -36 -15 -44 -48 -118 -48 -136 -1 -16
41 -12 63 15 89 16 14 22 26 15 30 -18 11 -11 80 13 115 31 46 81 70 144 70
71 0 109 -33 128 -110 7 -30 14 -45 14 -33 1 30 49 81 83 89 19 4 32 0 47 -15
28 -28 26 -56 -4 -86 -26 -26 -21 -34 9 -12 9 7 22 33 27 57 11 47 35 83 50
74 5 -3 9 -30 9 -60 0 -40 4 -54 13 -51 7 2 12 22 12 50 1 52 23 84 50 73 13
-5 16 -16 13 -51 -4 -56 9 -54 42 7 44 80 72 97 100 63z"/>
<path d="M2014 3929 c-3 -6 -1 -16 5 -22 9 -9 14 -8 21 3 9 15 4 30 -10 30 -5
0 -12 -5 -16 -11z"/>
<path d="M2534 3774 c-18 -14 -18 -15 4 -4 15 7 28 8 41 0 29 -15 39 -12 17 5
-25 19 -37 19 -62 -1z"/>
<path d="M2551 3743 c-9 -10 -10 -18 -3 -25 14 -14 42 -3 42 16 0 20 -23 26
-39 9z"/>
<path d="M2511 3730 c-1 -34 16 -50 54 -50 36 0 55 16 54 45 0 19 -1 19 -9 -2
-11 -27 -54 -40 -75 -23 -7 6 -16 21 -18 33 -4 19 -4 19 -6 -3z"/>
<path d="M2831 3466 c-6 -16 -10 -34 -8 -40 6 -17 29 33 24 52 -3 13 -7 10
-16 -12z"/>
<path d="M2871 3416 c-6 -16 -10 -31 -7 -33 7 -8 28 37 23 50 -3 7 -10 -1 -16
-17z"/>
<path d="M2667 2722 c3 -12 9 -25 14 -28 14 -8 11 10 -6 32 -13 18 -14 18 -8
-4z"/>
<path d="M1965 2720 c-40 -12 -110 -73 -140 -120 -79 -125 -68 -306 24 -383
71 -59 187 -41 265 43 27 28 49 50 50 48 1 -2 7 -15 14 -31 28 -66 112 -50
153 29 l24 44 11 -33 c6 -17 22 -38 36 -46 21 -12 29 -12 56 2 l32 15 -6 -25
c-19 -74 -3 -133 37 -133 33 0 52 46 62 151 6 54 14 99 19 99 4 0 8 -11 8 -23
0 -30 29 -57 61 -57 31 0 83 32 104 64 9 14 34 34 55 45 l39 20 18 -37 c15
-30 24 -38 51 -40 43 -4 80 20 98 64 15 36 34 45 34 16 0 -39 -45 -107 -82
-125 -42 -21 -69 -16 -99 16 -17 19 -21 20 -30 7 -29 -46 -22 -115 17 -151 20
-19 37 -24 75 -24 39 0 48 -3 44 -15 -2 -8 -11 -55 -20 -105 -20 -109 -35
-135 -75 -135 -36 0 -46 28 -33 93 6 24 6 53 2 64 -8 22 -75 53 -115 53 -62 0
-96 -51 -67 -100 15 -26 15 -31 -3 -81 -21 -58 -57 -87 -81 -67 -17 14 -16 44
2 104 8 27 12 57 9 67 -7 21 -37 22 -54 2 -9 -11 -26 -13 -69 -9 -90 9 -134
-28 -175 -148 -22 -65 -42 -85 -71 -74 -15 5 -17 15 -12 62 7 66 -4 100 -37
115 -28 13 -90 -12 -107 -42 -5 -11 -15 -19 -20 -19 -13 0 -9 27 17 122 20 74
14 96 -26 83 -32 -10 -55 -71 -84 -225 -41 -212 -32 -300 29 -300 44 0 55 24
52 110 -2 67 1 83 19 107 23 30 52 42 63 24 4 -6 3 -40 -3 -76 -8 -55 -7 -71
7 -100 14 -29 22 -35 47 -35 39 0 74 23 101 67 l22 35 15 -31 c31 -66 101 -52
150 29 26 44 32 50 32 29 0 -66 64 -90 118 -44 24 20 39 52 72 151 33 98 46
124 59 122 18 -4 19 -36 6 -149 -7 -60 -6 -68 14 -88 36 -36 86 -29 133 19 22
22 42 40 43 40 2 0 6 -11 9 -25 8 -29 45 -42 76 -25 19 10 22 19 20 78 -3 88
-2 92 14 92 8 0 22 -23 32 -51 40 -111 91 -127 163 -51 l46 47 27 -27 c21 -23
36 -28 73 -28 57 0 91 17 137 68 41 45 76 138 60 154 -8 8 -19 1 -38 -21 l-26
-32 -34 53 c-39 62 -40 69 -14 93 25 23 25 41 1 55 -55 29 -98 -4 -151 -115
-22 -46 -47 -90 -55 -99 -20 -20 -83 -37 -111 -30 -47 12 -38 56 14 69 59 15
83 73 44 108 -45 40 -103 11 -138 -70 -47 -105 -62 -40 -24 102 10 39 21 97
24 131 7 79 13 93 36 87 33 -9 76 46 100 126 18 57 20 75 10 84 -9 9 -15 8
-24 -7 -27 -46 -53 -69 -69 -63 -21 8 -21 26 -2 116 8 39 12 77 9 86 -6 16
-31 20 -50 7 -19 -12 -44 -70 -51 -117 -7 -56 -37 -97 -67 -93 -20 3 -21 7
-18 96 4 87 3 92 -16 92 -30 0 -59 -44 -73 -108 -14 -66 -33 -102 -55 -102 -8
0 -12 5 -9 10 13 21 -7 111 -30 138 -31 36 -93 37 -130 2 -25 -23 -27 -24 -39
-7 -16 21 -39 22 -55 3 -9 -11 -40 -131 -41 -158 0 -16 -41 -48 -59 -48 -29 0
-34 31 -15 104 13 53 14 69 4 81 -11 13 -16 13 -45 -5 -27 -16 -38 -18 -60
-10 -74 28 -166 -48 -190 -157 -18 -86 -174 -122 -240 -56 -31 31 -39 62 -31
111 7 45 33 82 71 101 44 21 60 5 58 -58 -2 -47 -1 -51 21 -51 82 0 139 141
83 206 -19 22 -33 28 -78 30 -30 2 -68 -1 -84 -6z m742 -168 c30 -19 14 -89
-22 -98 -53 -13 -73 39 -30 81 26 27 33 29 52 17z m-364 -73 c14 -22 1 -66
-23 -79 -33 -18 -60 -3 -60 32 0 57 57 89 83 47z m1077 -429 c19 -35 8 -73
-23 -84 -45 -16 -55 5 -29 59 24 50 36 55 52 25z m-936 -136 c20 -20 20 -43 0
-72 -19 -27 -60 -29 -74 -3 -12 24 1 65 27 80 24 14 29 14 47 -5z"/>
<path d="M3386 2004 c-4 -10 -1 -14 6 -12 15 5 23 28 10 28 -5 0 -13 -7 -16
-16z"/>
<path d="M1962 2573 c-21 -8 -42 -60 -42 -103 0 -57 34 -90 92 -90 62 0 71 9
46 48 -11 17 -26 32 -34 32 -22 0 -33 33 -27 78 6 43 -1 49 -35 35z"/>
<path d="M2315 2210 c-6 -29 -7 -29 -31 -14 -33 22 -50 12 -59 -32 -8 -45 -47
-94 -86 -111 -16 -7 -29 -16 -29 -22 0 -5 -3 -17 -7 -26 -5 -15 -3 -16 15 -6
26 14 77 14 102 1 12 -6 38 -6 77 2 68 13 95 31 43 28 -52 -3 -55 -2 -35 20
28 31 7 24 -32 -11 -56 -49 -52 -23 5 32 51 49 52 51 52 109 0 66 -5 76 -15
30z"/>
<path d="M2465 2098 c4 -18 8 -33 9 -34 0 0 12 -5 26 -10 19 -9 31 -7 58 9 27
16 38 18 59 8 23 -11 25 -16 21 -69 -2 -45 0 -57 12 -57 16 0 16 5 4 97 -7 53
-19 60 -99 60 -28 0 -60 6 -73 15 -24 15 -24 14 -17 -19z"/>
<path d="M1764 2091 c-88 -53 -87 -133 3 -250 41 -54 43 -94 7 -117 -19 -13
-32 -15 -51 -8 -33 11 -51 59 -34 86 6 10 9 23 6 28 -22 35 -114 -34 -116 -86
-5 -90 19 -157 68 -190 40 -26 136 -26 183 2 64 37 100 115 86 187 -4 19 -31
67 -61 106 -55 73 -68 114 -43 139 29 29 58 8 58 -43 0 -54 50 -32 70 31 14
42 -1 97 -33 119 -30 21 -105 19 -143 -4z"/>
<path d="M1820 1958 c0 -7 5 -20 10 -28 8 -12 10 -9 10 13 0 15 -4 27 -10 27
-5 0 -10 -6 -10 -12z"/>
<path d="M2278 1933 c7 -3 16 -2 19 1 4 3 -2 6 -13 5 -11 0 -14 -3 -6 -6z"/>
<path d="M1925 1904 c-11 -9 -32 -14 -46 -12 l-26 4 35 -45 c19 -26 36 -47 37
-49 2 -2 9 22 15 53 6 31 10 58 8 60 -2 2 -12 -3 -23 -11z"/>
<path d="M2257 1863 c-3 -15 -3 -30 0 -33 7 -7 34 32 30 44 -7 22 -25 15 -30
-11z"/>
<path d="M2398 3408 c-54 -19 -25 -48 48 -48 18 0 42 9 55 20 21 17 22 21 9
30 -19 12 -76 12 -112 -2z"/>
<path d="M1973 3385 c-13 -9 -23 -20 -23 -25 0 -4 10 -8 23 -8 12 -1 33 -2 47
-4 21 -2 25 1 25 22 0 31 -38 39 -72 15z"/>
<path d="M2998 1593 c-9 -10 -23 -34 -32 -53 -17 -34 -17 -35 1 -12 15 18 21
20 31 10 27 -27 2 -75 -32 -62 -12 5 -16 0 -16 -18 0 -56 61 -65 109 -17 17
17 31 34 31 39 0 5 3 17 7 27 6 17 5 17 -13 1 -19 -17 -21 -16 -37 12 -10 16
-17 42 -15 56 4 33 -13 41 -34 17z"/>
<path d="M2385 1586 c-78 -34 -112 -128 -59 -162 24 -16 26 -16 46 3 17 17 18
23 7 40 -19 31 -4 69 32 82 47 16 74 13 95 -10 36 -40 16 -149 -27 -149 -27 0
-33 21 -20 81 6 29 9 54 6 57 -12 12 -33 -23 -40 -65 -9 -59 -45 -98 -83 -89
-48 12 -54 11 -65 -5 -15 -24 0 -68 29 -81 34 -16 91 12 108 53 l13 30 17 -25
c19 -30 42 -33 74 -10 76 53 72 218 -5 253 -32 15 -91 13 -128 -3z"/>
<path d="M2871 1571 c-9 -6 -12 -24 -10 -56 5 -55 -16 -80 -46 -55 -12 10 -14
23 -9 58 5 35 4 44 -7 40 -18 -6 -36 -68 -22 -76 6 -4 10 -24 9 -46 -1 -27 4
-42 17 -50 15 -9 23 -6 47 21 15 17 39 33 52 35 12 2 24 11 26 20 2 12 -2 15
-17 11 -19 -5 -20 -2 -14 45 6 50 -3 67 -26 53z"/>
<path d="M2418 1539 c-33 -12 -44 -40 -26 -68 17 -28 2 -52 -43 -68 -27 -9
-31 -13 -16 -18 28 -12 65 20 77 67 17 70 29 90 48 86 19 -4 21 -26 8 -95 -6
-36 -5 -43 8 -43 37 0 54 112 20 137 -21 15 -38 15 -76 2z"/>
<path d="M2636 1509 c-29 -34 -36 -102 -13 -133 26 -35 99 -14 131 37 16 24 3
29 -32 11 -38 -18 -66 -15 -70 8 -2 12 2 15 16 11 11 -3 30 5 48 20 25 22 27
27 16 51 -17 38 -62 36 -96 -5z m62 -22 c4 -20 -25 -34 -40 -19 -15 15 -1 44
19 40 10 -2 19 -11 21 -21z"/>
<path d="M2665 1489 c-4 -6 -5 -13 -2 -16 7 -7 27 6 27 18 0 12 -17 12 -25 -2z"/>
<path d="M2976 1514 c-9 -22 -8 -24 9 -24 8 0 15 6 15 14 0 22 -17 28 -24 10z"/>
<path d="M558 1963 c-72 -45 -50 -163 31 -163 25 0 18 26 -10 35 -25 8 -42 41
-34 66 4 12 23 27 42 35 31 14 38 13 60 -1 22 -15 24 -22 19 -55 -7 -47 7 -60
29 -26 14 21 15 31 5 61 -21 62 -84 84 -142 48z"/>
<path d="M4504 1858 c-9 -18 -18 -34 -19 -36 -1 -1 -32 12 -69 28 -62 28 -86
31 -86 11 0 -7 150 -81 164 -81 6 0 46 89 46 101 0 20 -21 7 -36 -23z"/>
<path d="M1182 1203 c-29 -11 -33 -42 -12 -84 17 -31 19 -44 10 -55 -17 -20
-54 1 -47 26 6 25 -20 49 -29 27 -18 -47 32 -105 80 -93 35 9 43 47 21 97 -14
29 -15 43 -7 51 15 15 40 -5 44 -34 5 -35 28 -34 28 0 0 45 -49 81 -88 65z"/>
<path d="M3814 1191 c-16 -10 -35 -25 -43 -34 -15 -18 -5 -34 72 -122 31 -35
36 -38 42 -22 5 12 0 26 -15 42 -21 22 -21 25 -6 31 10 4 33 0 51 -9 29 -14
35 -14 45 -2 9 11 5 17 -24 29 -30 12 -36 20 -36 44 0 49 -42 70 -86 43z m54
-48 c5 -33 -30 -48 -53 -23 -15 16 -16 22 -5 35 19 22 54 15 58 -12z"/>
<path d="M1971 703 c-11 -48 -19 -88 -17 -90 7 -7 93 -18 114 -15 45 7 77 95
52 141 -10 20 -78 51 -109 51 -16 0 -23 -16 -40 -87z m111 25 c12 -14 16 -29
12 -47 -10 -41 -23 -51 -65 -51 -44 0 -42 -7 -17 93 8 33 12 37 31 32 12 -4
30 -16 39 -27z"/>
<path d="M2957 762 c-20 -22 -22 -57 -5 -69 7 -4 31 -13 53 -18 24 -7 41 -18
43 -28 4 -22 -25 -33 -49 -19 -25 16 -39 15 -39 -3 0 -17 30 -35 58 -35 27 0
72 38 72 60 0 24 -25 43 -74 55 -58 14 -57 41 2 37 43 -2 51 5 30 26 -18 18
-73 14 -91 -6z"/>
</g>
</svg>
